<svg width="123" height="26" viewBox="0 0 123 26" fill="none" xmlns="http://www.w3.org/2000/svg">
<g id="Microsoft" clip-path="url(#clip0_2045_32863)">
<path id="Vector" d="M122.467 11.7626V9.62192H119.813V6.29397L119.724 6.32153L117.231 7.08548L117.182 7.10044V9.62204H113.248V8.21729C113.248 7.56319 113.394 7.06264 113.681 6.72882C113.967 6.39901 114.376 6.23133 114.897 6.23133C115.272 6.23133 115.66 6.31976 116.051 6.49415L116.149 6.53795V4.28352L116.103 4.26657C115.738 4.13539 115.243 4.06934 114.628 4.06934C113.854 4.06934 113.151 4.23807 112.538 4.57248C111.924 4.90736 111.441 5.38542 111.103 5.99324C110.766 6.60036 110.595 7.30155 110.595 8.07752V9.62192H108.747V11.7626H110.595V20.7809H113.248V11.7626H117.182V17.4936C117.182 19.8539 118.294 21.05 120.486 21.05C120.846 21.05 121.225 21.0077 121.612 20.9249C122.006 20.8399 122.275 20.755 122.433 20.6643L122.467 20.6436V18.4831L122.36 18.5546C122.216 18.6507 122.036 18.7292 121.826 18.7876C121.615 18.8471 121.439 18.8769 121.302 18.8769C120.789 18.8769 120.409 18.7383 120.173 18.4648C119.935 18.1888 119.814 17.7061 119.814 17.0309V11.7626H122.467ZM102.822 18.8772C101.859 18.8772 101.1 18.5574 100.565 17.9275C100.027 17.2943 99.7543 16.3917 99.7543 15.2448C99.7543 14.0615 100.027 13.1354 100.566 12.4911C101.101 11.851 101.853 11.5262 102.801 11.5262C103.721 11.5262 104.453 11.8364 104.977 12.4488C105.505 13.0644 105.772 13.9831 105.772 15.1802C105.772 16.3919 105.521 17.3227 105.024 17.9454C104.532 18.5633 103.791 18.8772 102.822 18.8772ZM102.94 9.3531C101.103 9.3531 99.6441 9.89227 98.6038 10.9557C97.5641 12.0192 97.037 13.4909 97.037 15.3304C97.037 17.0776 97.5515 18.4829 98.5665 19.5067C99.5815 20.5309 100.963 21.0497 102.672 21.0497C104.452 21.0497 105.883 20.503 106.922 19.4249C107.962 18.348 108.489 16.8901 108.489 15.0936C108.489 13.3191 107.995 11.9033 107.019 10.8863C106.043 9.86884 104.671 9.3531 102.94 9.3531ZM92.7597 9.3531C91.51 9.3531 90.4764 9.67326 89.6867 10.3045C88.8923 10.9395 88.4893 11.7724 88.4893 12.7802C88.4893 13.3041 88.5763 13.7694 88.7475 14.1641C88.9197 14.5601 89.1862 14.9087 89.5403 15.2014C89.8916 15.4916 90.434 15.7956 91.1528 16.105C91.757 16.354 92.2076 16.5647 92.4939 16.7307C92.7737 16.8934 92.9722 17.057 93.0844 17.2163C93.1933 17.3722 93.2486 17.5855 93.2486 17.8488C93.2486 18.5985 92.6881 18.9633 91.5347 18.9633C91.1069 18.9633 90.619 18.8738 90.0844 18.6974C89.5537 18.5237 89.0528 18.2693 88.5992 17.9431L88.4891 17.864V20.4224L88.5295 20.4412C88.9049 20.6148 89.3782 20.7611 89.936 20.8763C90.4927 20.9916 90.9986 21.0502 91.438 21.0502C92.794 21.0502 93.886 20.7285 94.6828 20.0935C95.4846 19.4541 95.891 18.6016 95.891 17.5589C95.891 16.8067 95.6722 16.1617 95.2411 15.6415C94.8128 15.1255 94.0695 14.6518 93.0328 14.2331C92.2068 13.901 91.6777 13.6254 91.4594 13.4138C91.2489 13.2094 91.1421 12.9203 91.1421 12.5542C91.1421 12.2297 91.274 11.9697 91.5447 11.7592C91.8176 11.5476 92.1974 11.44 92.6737 11.44C93.1157 11.44 93.568 11.5099 94.0178 11.647C94.4672 11.784 94.8619 11.9676 95.1914 12.1922L95.2998 12.2663V9.83952L95.2582 9.82162C94.9542 9.69104 94.5533 9.5793 94.0664 9.48863C93.5817 9.39855 93.1421 9.3531 92.7597 9.3531ZM81.5733 18.8772C80.6107 18.8772 79.8512 18.5574 79.3164 17.9275C78.778 17.2943 78.5057 16.3919 78.5057 15.2448C78.5057 14.0615 78.7783 13.1354 79.317 12.4911C79.8518 11.851 80.6036 11.5262 81.5521 11.5262C82.4716 11.5262 83.2038 11.8364 83.7285 12.4488C84.2557 13.0644 84.5232 13.9831 84.5232 15.1802C84.5232 16.3919 84.2715 17.3227 83.7754 17.9454C83.2827 18.5633 82.5422 18.8772 81.5733 18.8772ZM81.6916 9.3531C79.8541 9.3531 78.3948 9.89227 77.3551 10.9557C76.3154 12.0192 75.7879 13.4909 75.7879 15.3304C75.7879 17.0783 76.3028 18.4829 77.3178 19.5067C78.3328 20.5309 79.7139 21.0497 81.4229 21.0497C83.2034 21.0497 84.6338 20.503 85.6737 19.4249C86.7133 18.348 87.2403 16.8901 87.2403 15.0936C87.2403 13.3191 86.7458 11.9033 85.7702 10.8863C84.7942 9.86884 83.4218 9.3531 81.6916 9.3531ZM71.7609 11.5544V9.62192H69.1403V20.7807H71.7609V15.0725C71.7609 14.1019 71.9806 13.3045 72.4142 12.7022C72.8422 12.1071 73.4126 11.8056 74.109 11.8056C74.345 11.8056 74.61 11.8446 74.8969 11.9217C75.181 11.9983 75.3867 12.0816 75.508 12.1692L75.6182 12.2491V9.60285L75.5757 9.5846C75.3317 9.48074 74.9864 9.42834 74.5496 9.42834C73.891 9.42834 73.3017 9.64029 72.7969 10.0576C72.3538 10.4244 72.0336 10.9273 71.7887 11.5544H71.7609ZM64.4473 9.3531C63.2451 9.3531 62.1727 9.61132 61.2606 10.1204C60.3466 10.6306 59.6398 11.359 59.1588 12.2852C58.68 13.2092 58.4369 14.2884 58.4369 15.4921C58.4369 16.5464 58.6726 17.5139 59.1385 18.3667C59.6046 19.2208 60.2643 19.8891 61.0995 20.3525C61.9334 20.8154 62.8972 21.0501 63.9644 21.0501C65.2098 21.0501 66.2731 20.8007 67.1256 20.3088L67.1601 20.2891V17.8843L67.0499 17.9648C66.6638 18.2466 66.2322 18.4715 65.7679 18.6335C65.3047 18.7954 64.8824 18.8772 64.5121 18.8772C63.4839 18.8772 62.6584 18.555 62.0592 17.9196C61.4587 17.2834 61.1542 16.39 61.1542 15.2659C61.1542 14.1347 61.4717 13.2183 62.0975 12.5422C62.7214 11.8681 63.5484 11.5262 64.5554 11.5262C65.4167 11.5262 66.2561 11.8183 67.0502 12.3953L67.1601 12.4752V9.94138L67.1246 9.92136C66.8257 9.7538 66.4182 9.61544 65.9122 9.51053C65.4084 9.40585 64.9156 9.3531 64.4473 9.3531ZM56.6321 9.62204H54.0115V20.7807H56.6321V9.62204ZM55.3486 4.86838C54.9173 4.86838 54.5411 5.01545 54.232 5.30688C53.9217 5.59913 53.7643 5.9671 53.7643 6.40136C53.7643 6.82879 53.9198 7.19005 54.2272 7.47453C54.5326 7.75819 54.91 7.90196 55.3487 7.90196C55.7873 7.90196 56.1661 7.75819 56.4751 7.475C56.7862 7.19005 56.9439 6.82891 56.9439 6.40136C56.9439 5.98229 56.7904 5.61809 56.4879 5.31866C56.1857 5.01981 55.8022 4.86838 55.3486 4.86838ZM48.8101 8.79874V20.7807H51.4845V5.20997H47.783L43.0781 16.7754L38.5124 5.20997H34.6602V20.7806H37.1734V8.79756H37.2597L42.081 20.7807H43.9777L48.7238 8.79874H48.8101Z" fill="#A1A1A1"/>
<path id="Vector_2" d="M13.2718 12.3547H0.943848V0.0065918H13.2718V12.3547Z" fill="#F1511B"/>
<path id="Vector_3" d="M26.8831 12.3547H14.5554V0.0065918H26.8831V12.3547Z" fill="#80CC28"/>
<path id="Vector_4" d="M13.2714 25.9933H0.943848V13.6453H13.2714V25.9933Z" fill="#00ADEF"/>
<path id="Vector_5" d="M26.8831 25.9933H14.5554V13.6453H26.8831V25.9933Z" fill="#FBBC09"/>
</g>
<defs>
<clipPath id="clip0_2045_32863">
<rect width="122" height="26" fill="white" transform="translate(0.943848)"/>
</clipPath>
</defs>
</svg>
