<svg xmlns="http://www.w3.org/2000/svg" fill="none" viewBox="0 0 112 110" id="jpg-logo" data-v-513c2ff9=""><path stroke="currentColor" stroke-width="5" d="m108.053 41.3536.081.3697.073.3714.065.3729.059.3744.051.3758.043.3771.036.3784.029.3796.021.3807.014.3818.006.3828-.001.3837-.009.3845-.016.3854-.023.386-.031.3867-.039.3873-.045.3878-.054.3883-.06.3886-.068.3889-.076.3892-.083.3893-.09.3894-.098.3894-.105.3894-.112.3893-.12.3891-.127.3889-.135.3885-.142.3881-.149.3877-.156.3871-.164.3866-.17.3859-.178.3851-.186.3844-.192.3835-.199.3825-.207.3816-.214.3804-.22.3794-.228.3781-.235.3768-.241.3755-.249.3741-.255.3727-.263.3711-.269.3695-.276.3678-.283.3661-.289.3643-.296.3624-.303.3605-.309.3585-.316.3565-.322.3543-.329.3522-.335.3499-.3411.3477-.3478.3453-.354.3428-.3603.3404-.3664.3378-.3724.3352-.3786.3326-.3846.3298-.3905.3271-.3964.3242-.4022.3214-.408.3184-.4137.3154-.4194.3123-.425.3092-.4306.3061-.436.3028-.4414.2996-.4468.2962-.4521.2929-.4574.2895-.4625.2859-.4676.2824-.4726.2789-.4776.2752-.4825.2715-.4873.2679-.4921.264-.4967.2603-.5014.2563-.5059.2525-.5104.2485-.5149.2446-.5191.2405-.5234.2364-.5275.2323-.5317.2281-.5357.2239-.5397.2197-.5435.2155-.5473.2111-.551.2067-.5547.2024-.5582.1979-.5617.1935-.5651.189-.5685.1845-.5716.1799-.5748.1753-.5779.1708-.5809.166-.5838.1614-.5865.1567-.5894.152-.592.1472-.5945.1424-.597.1376-.5994.1327-.6018.128-.6039.123-.6061.1181-.6081.1133-.6101.1082-.612.1033-.6138.0984-.6154.0933-.6171.0884-.6185.0833-.62.0783-.6214.0732-.6226.0681-.6237.0631-.6249.058-.6258.0529-.6267.0478-.6275.0427-.6282.0375-.6288.0324-.6294.0273-.6298.0221-.6301.017-.6304.0118-.6306.0067-.6306.0016-.6307-.0036-.6305-.0088-.6303-.0139-.6301-.0191-.6296-.0242-.6292-.0293-.6286-.0345-.628-.0396-.6273-.0447-.6264-.0498-.6255-.055-.6244-.06-.6234-.0651-.6222-.0702-.6209-.0753-.6195-.0803-.6181-.0853-.6165-.0904-.6149-.0953-.6131-.1004-.6114-.1053-.6094-.1103-.6075-.1152-.6053-.1201-.6032-.125-.601-.1299-.5986-.1347-.5962-.1395-.5937-.1444-.5911-.1491-.5884-.1539-.5856-.1585-.5828-.1633-.5799-.168-.5768-.1726-.5738-.1771-.5706-.1818-.5673-.1863-.5639-.1908-.5606-.1953-.557-.1998-.5534-.2041-.5498-.2085-.5461-.2129-.5422-.2172-.5383-.2214-.5343-.2256-.5303-.2299-.5262-.2339-.522-.2381-.5176-.2422-.5134-.2461-.5089-.2502-.5043-.254-.4999-.258-.4952-.2618-.4904-.2656-.4857-.2693-.4809-.2731-.4759-.2767-.4709-.2803-.4659-.2839-.4607-.2874-.4556-.2909-.4503-.2942-.445-.2977-.4396-.3009-.4342-.3041-.4287-.3074-.4231-.3105-.4175-.3137-.4118-.3166-.406-.3196-.4003-.3226-.3944-.3254-.3885-.3283-.3825-.331-.3766-.3336-.3704-.3364-.3643-.3389-.3582-.3414-.3519-.3439-.3456-.3463-.3393-.3486-.333-.3509-.3265-.3531-.3201-.3553-.3136-.3573-.30698-.3594-.30042-.3613-.29379-.3633-.28711-.3651-.28038-.3668-.27365-.3686-.26684-.3702-.26002-.3718-.25315-.3733-.24626-.3747-.23933-.3762-.23236-.3774-.22536-.3787-.21833-.3799-.21129-.3809-.20419-.3821-.19709-.383-.18994-.3839-.18277-.3848-.1756-.3855-.16839-.3862-.16114-.3869-.1539-.3875-.14661-.3879-.13933-.3884-.13202-.3888-.12469-.389-.11734-.3893-.10999-.3894-.10262-.3895-.09524-.3895-.08784-.3895-.08044-.3894-.07303-.3891-.06559-.3889-.05818-.3886-.05074-.3882-.0433-.3877-.03586-.3871-.02841-.3866-.02097-.3859-.01353-.3851-.00607-.3844.00136-.3834.0088-.3825.01625-.3815.02366-.3803.03111-.3792.03852-.3781.04592-.3767.05333-.3753.06071-.3739.06808-.3724.07545-.3709.0828-.3692.09014-.3675.09745-.3658.10476-.3639.11203-.362.11931-.3601.12655-.3581.13377-.3559.14096-.3538.14815-.3516.15529-.3492.16242-.347.16952-.3445.17659-.342.18364-.3395.19064-.3369.19764-.3343.20457-.3315.21149-.3287.21838-.3259.22523-.323.23203-.32.23881-.317.24556-.3139.25224-.3107.25891-.3076.26553-.3043.27209-.3009.27863-.2976.28514-.2942.29156-.2907.29798-.2872.30429-.2836.3107-.2799.3168-.2762.3231-.2725.3293-.2687.3353-.2648.3414-.261.3475-.2569.3533-.253.3593-.2489.3651-.2449.3709-.2406.3766-.2365.3822-.2323.3879-.228.3935-.2236.3989-.2193.4043-.2148.4098-.2104.415-.2059.4202-.2014.4255-.1968.4305-.1922.4356-.1875.4406-.1828.4455-.1781.4503-.1733.4551-.1685.4598-.1636.4645-.1588.469-.1539.4735-.149.478-.1439.4823-.139.4865-.1339.4908-.1289.4949-.1238.499-.1187.503-.1135.5068-.1084.5107-.1031.5145-.098.5181-.0927.5217-.0874.5253-.0822.5286-.0768.5321-.0716.5353-.0661.5385-.0608.5417-.0555.5447-.05.5476-.0446.5505-.0392.5533-.0338.5561-.0283.5586-.0228.5612-.0174.5637-.0119.566-.0063.5684-.0009.5705.0046.5727.0101.5747.0157.5767.0212.5785.0267.5803.0323.582.0378.5836.0433.5851.0488.5866.0544.5879.0599.5892.0655.5904.0709.5914.0765.5925.082.5933.0875.5942.093.595.0985.5955.104.5962.1094.5966.1149.597.1204.5973.1258.5975.1312.5976.1366.5977.142.5976.1473.5975.1528.5972.158.597.1634.5965.1687.596.1739.5955.1792.5948.1844.5941.1896.5932.1948.5923.2.5913.2051.5901.2102.5891.2152.5877.2203.5864.2253.5849.2303.5834.2352.5819.2402.5801.245.5783.2499.5765.2547.5746.2594.5725.2642.5704.2689.5683.2736.5659.2782.5636.2828.5612.2873.5586.2918.5561.2963.5534.3006.5506.3051.5478.3094.5449.3136.5418.3179.5389.3221.5357.3262.5324.3303.5292.3344.5258.3383.5223.3423.5188.3462.5152.35.5116.3537.5078.3575.504.3612.5002.3648.4961.3684.4922.3719.488.3753.4839.3787.4797.3821.4754.3853.471.3886.4666.3917.4621.3948.4575.3978.4529.4009.4482.4037.4435.4066.4387.4093.4338.4121.4288.4148.4239.4173.4189.4199.4137.4224.4086.4247.4034.4271.3981.4293.3927.4316.3874.4336.382.4357.3765.4378.3709.4396.3654.4415.3597.4433.3541.445.3483.4466.3426.4482.3367.4497.3309.4511.3249.4525.3191.4538.313.455.307.4561.3009.4572.2948.4582.2887.459.2825.46.2762.4607.27.4614.2638.4621.2574.4625.251.4631.2446.4635.2383.4638.2318.464.2253.4642.2188.4643.2123.4643.2057.4643.1992.4641.1925.464.186.4636.1793.4633.1726.4629.166.4624.159.4618.153.4611.146.4604.139.4595.132.4587.125.4578.119.4567.112.4556.105.4544.099.4531.091.4518.085.4504.078.4489.071.4473.064.4457.057.444.051.4422.043.4403.037.4384.03.4364.023.4344.016.4321.01.43.002.4276-.004.4253-.011.4228-.018.4204-.024.4177-.032.4151-.038.4124-.045.4095-.051.4067-.059.4038-.065.4008-.072.3977-.078.3945-.085.3914-.092.388-.098.3848-.105.3813-.112.3779-.118.3743-.124.3707-.131.367-.138.3633-.144.3596-.15.3556-.157.3518-.1631.3477-.1694.3437-.1757.3396-.182.3355-.1881.3312-.1943.327-.2005.3226-.2065.3182-.2127.3137-.2186.3093-.2246.3047-.2306.3001-.2365.2953-.2423.2907-.2482.2859-.2539.281-.2597.2762-.2653.2712-.271.2663-.2765.2612-.2821.2561-.2876.251-.293.2459-.2984.2406-.3038.2353-.309.23-.3142.2247-.3194.2193-.3246.2138-.3296.2084-.3346.2028-.3395.1972-.3445.1917-.3492.186-.3541.1804-.3587.1746-.3635.1689-.368.1631-.3725.1573-.3771.1514-.3814.1456-.3857.1396-.3901.1337-.3942.1278-.3984.1217-.4025.1157-.4065.1097-.4105.1035-.4143.0975-.4181.0914-.4219.0852-.4255.079-.4292.0728-.4327.0666-.4361.0604-.4396.0542-.4428.0479-.4462.0415-.4492.0353-.4524.029-.4554.0227-.4584.0163-.4612.01-.4641.0036-.4668-.0027-.4694-.0091-.472-.0155-.4746-.0219-.4769-.0283-.4793-.0346-.4816-.0411-.4838-.0475-.4858-.0539-.488-.0603-.4899-.0667-.4917-.073-.4936-.0795-.4954-.0859-.4969-.0923-.4986-.0986-.5-.105-.5014-.1114-.5028-.1178-.5041-.1241-.5052-.1304-.5063-.1368-.5073-.1431-.5082-.1494-.5091-.1556-.5099-.162-.5106-.1682-.5112-.1744-.5117-.1806-.5122-.1869-.5125-.193-.5129-.1992-.513-.2053-.5133-.2114-.5132-.2175-.5132-.2235-.5131-.2296-.513-.2356-.5127-.2415-.5123-.2475-.5119-.2534-.5114-.2593-.5108-.2651-.5102-.271-.5094-.2767-.5086-.2825-.5077-.2882-.5068-.2939-.5056-.2995-.5046-.305-.5033-.3107-.5021-.3162-.5007-.3216-.4993-.3271-.4978-.3325-.4961-.3378-.4945-.3431-.4928-.3484-.491-.3535-.489-.3588-.4871-.3638-.4851-.3689-.483-.3739-.4807-.3789-.4786-.3838-.4762-.3886-.4738-.3934-.4713-.3982-.4688-.4029-.4662-.4075-.4635-.4121-.4607-.4166-.458-.4211-.455-.4255-.4521-.4298-.4491-.4341-.446-.4383-.4428-.4425-.4397-.4467-.4363-.4506-.433-.4546-.4296-.4585-.4261-.4624-.4225-.4662-.419-.4698-.4153-.4735-.4116-.4771-.4078-.4806-.404-.484-.4001-.4874-.3961-.4907-.3921-.494-.388-.4971-.3839-.5002-.3798-.5032-.3755-.5061-.3712-.509-.3668-.5118-.3625-.5145-.3581-.5172-.3535-.5197-.349-.5223-.3444-.5246-.3397-.527-.3351-.5293-.3303-.5314-.3256-.5336-.3207-.5356-.3159-.5375-.3109-.5394-.306-.5412-.301-.5429-.2959-.5446-.2909-.5461-.2857-.5476-.2806-.5489-.2754-.5503-.2701-.5515-.2649-.5527-.2596-.5537-.2543-.5547-.2488-.5557-.2435-.5564-.2381-.5572-.2325-.5578-.2271-.5583-.2216-.5589-.216-.5593-.2105-.5596-.2048-.5598-.1992-.56-.1936-.56-.1879-.56-.1822-.5599-.1765-.5598-.1707-.5594-.165-.5592-.1592-.5586-.1535-.5582-.1476-.5575-.1418-.5568-.1359-.5561-.1301-.5552-.1243-.5543-.1184-.5532-.1124-.5521-.1066-.5509-.1007-.5497-.0948-.5483-.0888-.5468-.083-.5453-.077-.5437-.071-.542-.0652-.5402-.0591-.5383-.0533-.5364-.0473-.5344-.0414-.5322-.0354-.5301-.0295-.5278-.0236-.5254-.0176-.523-.0117-.5205-.0058-.5179.0001-.5153.0059-.5124.0119-.5096.0178-.5068.0236-.5037.0295-.5007.0353-.4975.0411-.4943.047-.4909.0528-.4876.0585-.4842.0643-.4806.07-.4771.0757-.4733.0815-.4696.0871-.4658.0928-.4618.0984-.4579.1041-.4539.1096-.4497.1151-.4456.1207-.4413.1263-.4369.1316-.4326.1372-.4281.1425-.4236.1479-.419.1533-.4143.1586-.4096.1639-.4048.1691-.3999.1743-.3951.1796-.39.1846-.385.1898-.3799.1948-.3747.1999-.3694.2049-.3642.2097-.3588.2147-.3534.2196-.348.2244-.3424.2291-.3369.2339-.3312.2385-.3256.2432-.3198.2478-.314.2523-.3081.2569-.3023.2612-.29632.2657-.29034.27-.28429.2743-.27822.2785-.27207.2827-.26589.2869-.25967.291-.25341.2949-.24709.299-.24074.3029-.23435.3067-.2279.3105-.22144.3143-.21494.318-.20838.3216-.2018.3252-.19518.3287-.18852.3322-.18185.3355-.17511.3389-.16837.3422-.16159.3453-.15479.3485-.14794.3516-.14107.3547-.1342.3575-.12726.3605-.12033.3633-.11336.3661-.10638.3688-.09937.3714-.09235.3739-.08528.3765-.07824.3789-.07114.3813-.06405.3835-.05693.3858-.04981.388-.04267.3901-.03552.3921-.02835.394-.02118.3959-.01401.3978-.0068.3995.00037.4012.00757.4028.0148.4043.02199.4058.02919.4072.03641.4085.04362.4098.05083.411.05803.412.06524.4132.07244.414.07963.415.08682.4158.094.4166.10117.4173.10833.4178.11548.4184.12262.4189.12975.4193.13686.4196.14396.4198.15103.42.1581.4201.16514.4202.17217.4201.17918.4201.18616.4198.19312.4196.20006.4193.20697.4188.21387.4184.2207.4179.22756.4173.23437.4166.24113.4158.24787.415.25459.4142.26127.4131.26791.4122.27452.411.28111.4099.28763.4087.29414.4073.3006.406.30699.4045.3134.403.3198.4015.326.3998.3323.398.3385.3963.3446.3945.3508.3926.3569.3905.3628.3886.3689.3864.3747.3843.3806.382.3865.3797.3922.3774.3979.3749.4035.3725.4092.3699.4147.3673.4202.3647.4257.3619.431.3591.4363.3563.4416.3533.4467.3504.4519.3474.4569.3443.462.3412.4668.338.4718.3347.4765.3315.4813.3281.486.3247.4905.3212.4951.3177.4996.3141.5039.3105.5083.3069.5125.3032.5167.2993.5208.2956.5248.2917.5288.2878.5327.2839.5365.2798.5402.2759.5439.2717.5474.2676.551.2634.5543.2592.5577.255.561.2506.5642.2464.5672.2419.5703.2376.5732.233.5761.2286.5788.2241.5816.2196.5842.2149.5866.2103.5892.2057.5915.2009.5937.1963.596.1915.598.1867.6001.1819.602.1771.6039.1722.6056.1673.6073.1625.6088.1575.6104.1525.6117.1476.6131.1425.6144.1375.6154.1325.6166.1274.6174.1224.6184.1172.6192.1122.6198.107.6205.1018.6209.0968.6215.0915.6217.0864.622.0811.6222.076.6222.0708.6222.0655.6221.0603.6219.0551.6216.0498.6213.0446.6207.0394.6202.0341.6196.0289.6188.0236.618.0183.617.0131.6161.0079.6149.0026.6138-.0026.6125-.0079.6111-.0131.6097-.0183.6081-.0236.6065-.0287.6047-.034.603-.0391.6011-.0444.5991-.0495.597-.0547.5948-.0598.5926-.0649.5903-.07.5879-.0752.5853-.0802.5828-.0853.5801-.0904.5774-.0953.5745-.1004.5716-.1054.5685-.1103.5655-.1153.5623-.1201.5591-.1251.5557-.1299.5523-.1348.5488-.1396.5452-.1444.5415-.1491.5379-.1538.534-.1586.5301-.1632.5261-.1678.5221-.1725.5179-.177.5138-.1815.5095-.1861.5051-.1905.5007-.1949.4962-.1993.4917-.2037.4869-.2079.4823-.2123.4775-.2165.4727-.2206.4677-.2248.4627-.229.4577-.2329.4525-.237.4473-.241.4421-.2449.4368-.2488.4314-.2526.4259-.2564.4204-.2602.4148-.2638.4092-.2675.4035-.2711.3978-.2747.3919-.2781.3861-.2816.3801-.2849.3742-.2883.3681-.2916.362-.2948.3559-.298.3497-.3011.3434-.3042.3371-.3071.3308-.3102.3244-.313.318-.3159.3118-.3186.305-.3214.298-.3241.292-.3266.285-.3292.278-.3317.272-.3341.264-.3364.258-.3388.251-.341.245-.3432.237-.3453.23-.3474.223-.3493.217-.3513.209-.3531.202-.3549.195-.3567.187-.3583.181-.36.173-.3615.166-.3629.159-.3644.152-.3657.144-.3669.137-.3682.129-.3693.123-.3704.114-.3715.108-.3723.1-.3732.092-.374.085-.3748.078-.3754.07-.3761.063-.3765.055-.3771.047-.3774.04-.3777.033-.3781.025-.3782.018-.3783.01-.3784.002-.3784-.005-.3782-.012-.3782-.02-.3779-.028-.3776-.035-.3773-.043-.3769-.05-.3763-.057-.3759-.066-.3751-.072-.3745-.08-.3737-.088-.3729-.095-.372-.102-.371-.11-.37-.117-.3689-.125-.3677-.132-.3665-.139-.3652-.147-.3638-.154-.3624-.161-.3609-.169-.3593-.175-.3577-.183-.356-.19-.3542-.198-.3524-.204-.3506-.212-.3485-.218-.3466-.226-.3445-.232-.3423-.24-.3402-.247-.3378-.253-.3356-.26-.3332-.267-.3307-.274-.3282-.281-.3256-.287-.323-.294-.3203-.3-.3176-.3073-.3148-.3137-.3119-.32-.309-.3265-.306-.3329-.303-.3393-.2999-.3455-.2967-.3517-.2936-.3579-.2903-.3641-.287-.3701-.2836-.3761-.2802-.3821-.2768-.388-.2732-.3939-.2697-.3997-.2661-.4053-.2624-.4111-.2587-.4167-.2549-.4222-.2512-.4278-.2472-.4331-.2434-.4385-.2394-.4438-.2355-.4491-.2314-.4542-.2273-.4593-.2232-.4644-.219-.4694-.2148-.4742-.2106-.4791-.2063-.4838-.2019-.4885-.1976-.4932-.1932-.4976-.1888-.5022-.1843-.5065-.1797-.5109-.1753-.5152-.1706-.5193-.166-.5234-.1614-.5274-.1567-.5314-.152-.5352-.1473-.539-.1425-.5428-.1376-.5464-.1329-.5499-.128-.5534-.1232-.5568-.1182-.5601-.1133-.5633-.1084-.5665-.1034-.5695-.0984-.5726-.0934-.5754-.0884-.5782-.0833-.5809-.0782-.5836-.0731-.5862-.0681-.5886-.0629-.5911-.0578-.5933-.0526-.5955-.0475-.5977-.0422-.5997-.0371-.6016-.0319-.6035-.0267-.6053-.0215-.607-.0163-.6086-.011-.6101-.0058-.6115-.0006-.6129.0047-.6141.01-.6153.0152-.6163.0204-.6173.0257-.6182.0309-.619.0362-.6197.0415-.6204.0467-.6208.0519-.6213.0572-.6217.0624-.6219.0676-.6221.0728-.6221.0781-.6221.0832-.6221.0884-.6219.0937-.6215.0987-.6212.104-.6208.109-.6202.1142-.6195.1193-.6188.1244-.618.1294-.6171.1345-.6162.1396-.615.1446-.6138.1495-.6126.1546-.6112.1594-.6098.1644-.6083.1694-.6066.1741-.605.1791-.6031.1838-.6013.1887-.5994.1934-.5972.1982-.5952.2029-.5929.2075-.5906.2122-.5883.2168-.5857.2214-.5833.2259-.5805.2305-.5779.2349-.575.2393-.5722.2437-.5692.2481-.5661.2525-.563.2567-.5598.2609-.5566.2652-.5531.2693-.5497.2734-.5462.2775-.5426.2815-.5388.2855-.5352.2894-.5313.2933-.5274.2972-.5234.301-.5193.3047-.5152.3084-.5111.312-.5067.3157-.5024.3191-.498.3227-.4935.3261-.4889.3295-.4844.3329-.4796.3361-.4748.3394-.4701.3425-.4651.3456-.4602.3487-.4552.3517-.4501.3546-.4449.3575-.4397.3604-.4345.3631-.4291.3658-.4238.3684-.4183.3711-.4128.3736-.4072.376-.4016.3784-.3959.3808-.3902.383-.3844.3852-.3786.3874-.3727.3895-.3668.3915-.3608.3934-.3547.3954-.3486.3971-.3426.3989-.3363.4006-.3301.4022-.3239.4037-.3176.4053-.3112.4066-.30476.408-.29837.4093-.29189.4105-.28539.4117-.27883.4127-.27225.4137-.26563.4146-.25896.4155-.25229.4163-.24556.417-.23881.4177-.23202.4182-.2252.4188-.21836.4192-.21151.4195-.2046.4199-.19768.4201-.19074.4202-.18377.4203-.17677.4204-.16977.4202-.16273.4201-.15568.42-.14863.4196-.14152.4193-.13444.4188-.12731.4184-.12019.4178-.11304.4172-.10589.4164-.09873.4157-.09155.4148-.08438.4139-.07719.4129-.06998.4118-.06279.4107-.05559.4095-.04839.4082-.04116.4068-.03397.4054-.02675.404-.01955.4023-.01235.4007-.00514.399.00206.3973.00924.3953.01643.3935.02361.3915.03077.3894.03793.3874.04508.3851.05221.3828.05933.3806.06644.3781.07353.3757.0806.3732.08766.3705.0947.3679.10173.3652.10871.3624.11571.3596.12265.3566.12959.3536.13649.3506.14338.3475.15022.3443.15706.3411.16385.3377.17062.3345.17736.331.18407.3275.19075.324.19738.3204.20399.3167.21055.313.21709.3093.2236.3054.23003.3015.23647.2976.24284.2936.24918.2895.25546.2855.26173.2813.26793.277.27409.2729.28022.2684.28628.2642.2923.2597.29829.2552.3042.2508.3101.2462.3159.2415.3216.2369.3274.2322.3331.2275.3387.2227.3442.2178.3497.213.3552.208.3606.2031.3658.1981.3712.193.3764.188.3815.1828.3866.1777.3916.1725.3966.1672.4015.162.4063.1567.4111.1514.4158.1459.4205.1406.425.1352.4295.1297.434.1242.4383.1187.4427.1132.4468.1076.451.102.4552.0964.4591.0907.4631.0851.4669.0794.4708.0736.4744.068.4782.0621.4817.0565.4852.0506.4886.0448.492.039.4952.0332.4985.0273.5015.0215.5047.0156.5075.0097.5105.0039.5133-.0021.5159-.008.5187-.0139.5212-.0199.5237-.0257.5261-.0317.5284-.0376.5307-.0436.5328-.0495.5349-.0555.5369-.0614.5388-.0673.5407-.0733.5424-.0792.5441-.0851.5457-.0911.5471-.097.5486-.1029.5499-.1087.5512-.1147.5523-.1206.5534-.1265.5545-.1323.5553-.1381.5562-.144.5569-.1498.5576-.1556.5581-.1614.5587-.1672.559-.1729.5594-.1787.5596-.1843.5598-.1901.5599-.1957.5598-.2014.5598-.2069.5595-.2126.5593-.2181.559-.2237.5585-.2292.558-.2347.5574-.2401.5568-.2456.556-.2509.5551-.2563.5542-.2617.5532-.2669.552-.2721.551-.2774.5496-.2826.5483-.2878.5469-.2928.5454-.2979.5438-.3029.5422-.3079.5404-.3129.5386-.3177.5367-.3226.5347-.3275.5326-.3322.5305-.3369.5283-.3416.5261-.3462.5236-.3508.5212-.3553.5187-.3598.516-.3642.5135-.3686.5106-.3729.5079-.3772.5049-.3814.502-.3856.4989-.3897.4959-.3937.4926-.3977.4894-.4017.4861-.4055.4826-.4094.4792-.413.4757-.4169.4721-.4204.4684-.424.4647-.4276.4609-.431.457-.4344.453-.4377.4491-.4409.445-.4442.441-.4473.4367-.4504.4324-.4533.4282-.4563.4238-.4591.4194-.462.4149-.4646.4103-.4674.4058-.4699.4011-.4724.3963-.4749.3917-.4772.3868-.4795.3819-.4818.377-.4839.372-.486.367-.488.3619-.49.3568-.4918.3516-.4936.3465-.4953.3411-.497.3358-.4985.3305-.5.325-.5014.3196-.5027.3141-.504.3086-.5052.3031-.5063.2974-.5073.2918-.5082.286-.5091.2804-.51.2746-.5106.2688-.5112.263-.5118.2571-.5123.2513-.5126.2453-.513.2393-.5133.2334-.5133.2274-.5135.2213-.5134.2153-.5134.2091-.5132.2031-.513.1969-.5126.1908-.5122.1846-.5118.1784-.5112.1721-.5105.166-.5098.1596-.509.1534-.5082.1471-.5071.1408-.5062.1345-.505.1282-.5038.1218-.5025.1154-.5011.1091-.4997.1028-.4982.0963-.4966.09-.4949.0836-.4932.0772-.4913.0708-.4894.0644-.4874.0579-.4854.0516-.4832.0452-.4809.0388-.4787.0324-.4763.026-.4738.0196-.4713.0132-.4687.0069-.466.0005-.4633-.0059-.4604-.0123-.4575-.0185-.4545-.0249-.4515-.0312-.4484-.0376-.4451-.0438-.4419-.0501-.4385-.0563-.4351-.0626-.4316-.0688-.4281-.075-.4244-.0812-.4208-.0874-.4169-.0935-.4132-.0996-.4092-.1057-.4052-.1117-.4012-.1179-.3971-.1238-.393-.1298-.3887-.1358-.3844-.1417-.38-.1476-.3756-.1534-.3711-.1593-.3666-.1651-.3619-.1709-.3573-.1766-.3525-.1823-.3477-.188-.3429-.1936-.3379-.1992-.333-.2047-.328-.2102-.3228-.2157-.3178-.2212-.3125-.2265-.3073-.2318-.302-.2371-.2966-.2424-.2913-.2476-.2857-.2527-.2803-.2579-.2747-.2629-.2691-.268-.2635-.2729-.2577-.2778-.2521-.2826-.2462-.2875-.2404-.2923-.2345-.2969-.2286-.3016-.2226-.3062-.2167-.3108-.2106-.3152-.2045-.3197-.1984-.324-.1923-.3284-.186-.3326-.1798-.3368-.1736-.341-.1673-.345-.1609-.3491-.1546-.353-.1482-.3569-.1418-.3607-.1353-.3645-.1289-.3683-.1223-.3718-.1159-.3755-.1092-.3789-.1027-.3824-.0961-.3858-.0895-.3891-.0828-.3924-.07619-.3955-.06949-.3986-.0628-.4017-.05607-.4047-.04935-.4076-.04258-.4104-.03585-.4132-.02905-.4159-.02228-.4185-.01548-.421-.00867-.4236-.00186-.426.00496-.4283.0118-.4306.01862-.4327.02547-.4349.0323-.437.03916-.4389.046-.4408.05285-.4427.0597-.4444.06653-.4462.07338-.4477.0802-.4492.0871-.4507.0939-.4521.1006-.4534.1076-.4547.1143-.4558.1211-.4569.1279-.4579.1347-.4588.1414-.4597.1481-.4604.1549-.4612.1616-.4618.1683-.4624.175-.4628.1817-.4633.1882-.4635.1949-.4638.2015-.464.208-.4641.2146-.4642.2212-.464.2276-.464.234-.4637.2405-.4635.247-.4631.2533-.4627.2596-.4622.2659-.4616.2723-.461.2785-.4602.2847-.4595.2908-.4585.297-.4577.3031-.4566.3092-.4555.3151-.4543.3212-.4531.3271-.4518.333-.4504.3388-.449.3446-.4474.3504-.4459.3561-.4441.3618-.4425.3674-.4406.3729-.4387.3785-.4368.3839-.4348.3894-.4327.3947-.4305.4-.4284.4053-.426.4104-.4237.4156-.4212.4207-.4188.4257-.4162.4307-.4136.4356-.4109.4404-.4082.4453-.4053.4499-.4025.4546-.3995.4592-.3966.4638-.3935.4682-.3904.4726-.3872.477-.3839.4813-.3807.4854-.3773.4896-.3738.4937-.3705.4976-.3668.5016-.3633.5054-.3597.5093-.356.5129-.3522.5166-.3484.5202-.3446.5236-.3406.5271-.3367.5304-.3327.5337-.3287.5369-.3245.54-.3204.5431-.3161.546-.312.5489-.3076.5517-.3033.5544-.2989.5571-.2945.5597-.29.5621-.2855.5646-.2809.5668-.2763.5692-.2717.5712-.267.5734-.2624.5754-.2575.5772-.2528.5791-.2479.5809-.2431.5825-.2382.5841-.2333.5856-.2283.587-.2233.5883-.2183.5895-.2133.5908-.2081.5917-.2031.5928-.1979.5936-.1928.5945-.1875.5952-.1824.5958-.1771.5963-.1719.5968-.1666.5972-.1613.5975-.156.5977-.1506.5977-.1452.5978-.1399.5978-.1345.5975-.1291.5974-.1237.597-.1182.5966-.1128.5961-.1073.5955-.1019.5948-.0963.594-.0909.5932-.0854.5923-.0798.5912-.0744.5901-.0688.5889-.0633.5876-.0578.5862-.0522.5848-.0467.5832-.0412.5815-.0357.5799-.0301.578-.0246.5761-.0191.5742-.0135.572-.008.57-.0026.5676.003.5654.0085.563.014.5604.0195.5579.0249.5553.0304.5524.0358.5497.0413.5468.0467.5438.0521.5407.0575.5375.0628.5344.0682.531.0736.5276.0788.5242.0842.5206.0894.517.0947.5133.0999.5095.1052.5056.1103.5017.1155.4977.1206.4937.1257.4894.1308.4853.1358.4809.1409.4765.1459.4721.1508.4676.1557.463.1606.4583.1655.4536.1703.4488.1751.4439.1799.439.1845.434.1893.4289.1939.4238.1985.4186.2031.4133.2075.408.2121.4026.2165.3971.2209.3916.2253.3861.2295.3805.2339.3747.238.369.2422.3632.2464.3574.2504.3514.2545.3455.2584.3391.2624.334.2662.327.2701.321.2739.315.2776.308.2812.303.2849.295.2885.29.292.283.2954.276.2989.27.3021.264.3055.256.3087.25.3119.244.315.236.3181.23.3211.223.324.216.3269.209.3298.203.3324.195.3352.188.3379.182.3404.174.3429.167.3454.16.3477.153.3501.146.3524.138.3545.132.3567.124.3587.117.3608.109.3627.103.3645.095.3664.087.3681Z"></path></svg>