<svg fill="none" xmlns="http://www.w3.org/2000/svg" viewBox="0 0 145 130" aria-hidden="true" role="img"><g clip-path="url(#clip0_11461_57928)"><path d="M1.432 125.629h142.136c.795 0 1.432.637 1.432 1.432 0 .796-.637 1.433-1.432 1.433H1.432A1.427 1.427 0 010 127.061c0-.795.637-1.432 1.432-1.432z" fill="url(#paint0_linear_11461_57928-uid-40)"></path><path d="M88.815 11.664h-2.388l1.114-5.889c.16-1.273-.636-2.388-1.91-2.388-1.273 0-2.546 1.115-2.706 2.388l-1.114 5.89h-2.387l1.114-5.89C81.016 3.228 83.562 1 86.108 1c2.547 0 4.298 2.07 3.98 4.775l-1.273 5.89z" fill="url(#paint1_linear_11461_57928-uid-40)"></path><path d="M134.495 9.438h-99.16a4.021 4.021 0 00-3.661 2.387l-2.388 5.73c-6.207 14.325-9.39 29.923-9.39 45.521v65.417l103.457-62.392 4.457-3.025c0-15.598 3.183-31.196 9.391-45.521l1.114-2.547c.955-2.069 0-4.456-2.069-5.252-.637-.319-1.274-.319-1.751-.319z" fill="url(#paint2_linear_11461_57928-uid-40)"></path><path d="M109.825 63.074l9.231 65.577H11.142L1.91 63.074h107.915z" fill="url(#paint3_linear_11461_57928-uid-40)"></path><path d="M63.825 81.379c0-.478-.16-.796-.478-1.114l-1.114-1.115-.319.637h-4.138c-.796 0-1.591.637-1.591 1.592v.159l1.432 10.027h-.796l1.274 1.274.159.159c.318.318.636.477 1.114.477h3.66c.797 0 1.592-.636 1.592-1.591l-.796-10.505z" fill="#6D2B11"></path><path d="M123.353 66.098l-4.456-2.865-4.457 2.865-4.616-3.024 9.232 65.417h8.754V63.074l-4.457 3.024z" fill="url(#paint4_linear_11461_57928-uid-40)"></path><path d="M123.513 128.651h-2.388l-6.844-62.553 4.457-2.865 4.775 65.418zm4.297 0V63.074l-4.456 2.865 2.546 62.552h1.91v.16z" fill="url(#paint5_linear_11461_57928-uid-40)"></path><path d="M62.554 80.106l.478 10.505c0 .796-.637 1.592-1.433 1.592h-3.66c-.797 0-1.433-.637-1.592-1.273l-1.433-10.505c-.159-.796.478-1.592 1.273-1.751h4.775c.796 0 1.592.636 1.592 1.432z" fill="url(#paint6_linear_11461_57928-uid-40)"></path><path d="M61.12 80.106l.478 10.505c0 .796-.637 1.592-1.432 1.592h-3.661c-.796 0-1.433-.637-1.592-1.273l-1.432-10.505c-.16-.796.477-1.592 1.273-1.751h4.775c.796 0 1.432.636 1.592 1.432z" fill="url(#paint7_linear_11461_57928-uid-40)"></path><path d="M58.097 49.862l-.637-11.141c0-.478.477-.955.955-.955.477 0 .955.318.955.796v.159l-.637 11.141c0 .16-.159.319-.477.319 0 0-.16-.16-.16-.319zm9.39 3.659l7.481-8.276c.318-.319.955-.478 1.273 0 .319.318.478.955 0 1.273l-8.276 7.48c-.16.16-.319 0-.478-.158v-.319zm-18.781.478l-8.277-7.481c-.318-.318-.477-.955 0-1.273.319-.319.955-.478 1.274 0l7.48 8.276c.16.16 0 .319-.159.478h-.318z" fill="#01CDBE"></path></g><defs><linearGradient id="paint0_linear_11461_57928-uid-40" x1=".027" y1="127.156" x2="145.131" y2="127.156" gradientUnits="userSpaceOnUse"><stop stop-color="#C3D2C3" stop-opacity=".05"></stop><stop offset=".03" stop-color="#C3D2C3" stop-opacity=".3"></stop><stop offset=".06" stop-color="#C3D2C3" stop-opacity=".51"></stop><stop offset=".08" stop-color="#C3D2C3" stop-opacity=".69"></stop><stop offset=".11" stop-color="#C3D2C3" stop-opacity=".83"></stop><stop offset=".14" stop-color="#C3D2C3" stop-opacity=".92"></stop><stop offset=".16" stop-color="#C3D2C3" stop-opacity=".98"></stop><stop offset=".19" stop-color="#C3D2C3"></stop><stop offset=".29" stop-color="#C3D2C3"></stop><stop offset=".88" stop-color="#C3D2C3"></stop><stop offset=".9" stop-color="#C3D2C3" stop-opacity=".78"></stop><stop offset=".97" stop-color="#C3D2C3" stop-opacity=".23"></stop><stop offset="1" stop-color="#C3D2C3" stop-opacity=".01"></stop></linearGradient><linearGradient id="paint1_linear_11461_57928-uid-40" x1="84.65" y1="11.718" x2="84.65" y2="1.019" gradientUnits="userSpaceOnUse"><stop offset=".32" stop-color="#EB9546"></stop><stop offset="1" stop-color="#FCCD81"></stop></linearGradient><linearGradient id="paint2_linear_11461_57928-uid-40" x1="79.222" y1="128.626" x2="79.222" y2="9.368" gradientUnits="userSpaceOnUse"><stop offset=".22" stop-color="#6D2B11"></stop><stop offset=".37" stop-color="#712D11"></stop><stop offset=".51" stop-color="#7C3212"></stop><stop offset=".65" stop-color="#8F3B14"></stop><stop offset=".78" stop-color="#A94816"></stop><stop offset=".86" stop-color="#BC5118"></stop></linearGradient><linearGradient id="paint3_linear_11461_57928-uid-40" x1="60.436" y1="128.631" x2="60.436" y2="63.138" gradientUnits="userSpaceOnUse"><stop stop-color="#6D2B11"></stop><stop offset=".08" stop-color="#793112"></stop><stop offset=".32" stop-color="#963F15"></stop><stop offset=".55" stop-color="#AB4917"></stop><stop offset=".78" stop-color="#B84F18"></stop><stop offset="1" stop-color="#BC5118"></stop></linearGradient><linearGradient id="paint4_linear_11461_57928-uid-40" x1="118.787" y1="128.624" x2="118.787" y2="63.138" gradientUnits="userSpaceOnUse"><stop stop-color="#51200F"></stop><stop offset=".38" stop-color="#55220F"></stop><stop offset=".75" stop-color="#602610"></stop><stop offset="1" stop-color="#6D2B11"></stop></linearGradient><linearGradient id="paint5_linear_11461_57928-uid-40" x1="121.039" y1="128.624" x2="121.039" y2="63.131" gradientUnits="userSpaceOnUse"><stop stop-color="#6D2B11"></stop><stop offset=".08" stop-color="#793112"></stop><stop offset=".32" stop-color="#963F15"></stop><stop offset=".55" stop-color="#AB4917"></stop><stop offset=".78" stop-color="#B84F18"></stop><stop offset="1" stop-color="#BC5118"></stop></linearGradient><linearGradient id="paint6_linear_11461_57928-uid-40" x1="54.849" y1="85.444" x2="63.045" y2="85.444" gradientUnits="userSpaceOnUse"><stop offset=".09" stop-color="#FCCD81"></stop><stop offset=".34" stop-color="#EB9546"></stop><stop offset=".51" stop-color="#FCCD81"></stop><stop offset=".89" stop-color="#EB9546"></stop></linearGradient><linearGradient id="paint7_linear_11461_57928-uid-40" x1="53.194" y1="89.696" x2="62.19" y2="80.7" gradientUnits="userSpaceOnUse"><stop offset=".09" stop-color="#FCCD81"></stop><stop offset=".34" stop-color="#EB9546"></stop><stop offset=".51" stop-color="#FCCD81"></stop><stop offset=".89" stop-color="#EB9546"></stop></linearGradient><clipPath id="clip0_11461_57928-uid-40"><rect width="145" height="130" fill="#fff"></rect></clipPath></defs></svg>