<svg fill="none" xmlns="http://www.w3.org/2000/svg" viewBox="0 0 145 130" aria-hidden="true" role="img"><g clip-path="url(#clip0_11461_58483)"><path d="M.957 105.818h143.086c.547 0 .957.41.957.957 0 .547-.41.957-.957.957H.957a.934.934 0 01-.957-.957c0-.41.41-.957.957-.957z" fill="url(#paint0_linear_11461_58483-uid-69-uid-86)"></path><path d="M115.754 31.61l-.82-4.92c-.41-2.187-2.187-3.69-4.373-3.69H81.315c-2.187 0-4.1 1.64-4.374 3.69l-.82 4.92c-.41 2.05-2.186 3.553-4.236 3.553H25.692c-2.46 0-4.51 2.05-4.51 4.51v68.195h108.921V39.673c0-2.46-2.049-4.51-4.509-4.51h-5.604c-2.05.137-3.826-1.367-4.236-3.553z" fill="url(#paint1_linear_11461_58483-uid-69-uid-86)"></path><path d="M114.388 31.61l-.82-4.92c-.41-2.187-2.187-3.69-4.374-3.69H79.948c-2.186 0-4.1 1.64-4.373 3.69l-.957 4.92c-.41 2.05-2.186 3.553-4.236 3.553H24.326c-2.46 0-4.51 2.05-4.51 4.51v68.195h108.921V39.673c0-2.46-2.05-4.51-4.51-4.51h-5.603c-2.05.137-3.963-1.367-4.236-3.553z" fill="url(#paint2_linear_11461_58483-uid-69-uid-86)"></path><path d="M126.552 38.035H15.308v64.642h111.244V38.035z" fill="url(#paint3_linear_11461_58483-uid-69-uid-86)"></path><path d="M126.688 55.118l-.683-13.94L73.8 38.035H15.308v6.15L17.63 99.67l54.392 3.144h54.665V55.118z" fill="#C3D2C3"></path><path d="M125.595 104.998L14.487 98.575l-2.87-65.052 111.108 6.56 2.87 64.915z" fill="url(#paint4_linear_11461_58483-uid-69-uid-86)"></path><path d="M125.595 104.999l-1.913-44.28-1.504-7.379c-.273-1.64-1.23-3.007-2.596-3.963l-.957-5.057H12.165l1.502 34.44 3.964 19.952L125.595 105z" fill="#E4EBE4"></path><path d="M128.464 107.868H17.084L4.1 43.227h111.244l13.119 64.641z" fill="#fff"></path><path d="M118.898 52.246c-.547-3.007-3.28-5.193-6.287-5.193H12.027c-1.504 0-2.87.546-4.1 1.503l-.137.137-1.23 1.093h.273c-1.093 1.503-1.366 3.28-1.093 4.92l10.66 53.162h113.704l-11.206-55.622z" fill="url(#paint5_linear_11461_58483-uid-69-uid-86)"></path><path d="M111.518 48.147H10.798a6.416 6.416 0 00-6.424 6.423c0 .41 0 .82.137 1.23l10.523 52.068h113.704l-10.933-54.665c-.684-3.007-3.28-5.056-6.287-5.056z" fill="#14A800"></path></g><defs><linearGradient id="paint0_linear_11461_58483-uid-69-uid-86" x1="-.015" y1="106.891" x2="145.082" y2="106.891" gradientUnits="userSpaceOnUse"><stop stop-color="#C3D2C3" stop-opacity="0"></stop><stop offset=".01" stop-color="#C3D2C3" stop-opacity=".05"></stop><stop offset=".06" stop-color="#C3D2C3" stop-opacity=".3"></stop><stop offset=".12" stop-color="#C3D2C3" stop-opacity=".51"></stop><stop offset=".18" stop-color="#C3D2C3" stop-opacity=".69"></stop><stop offset=".23" stop-color="#C3D2C3" stop-opacity=".83"></stop><stop offset=".28" stop-color="#C3D2C3" stop-opacity=".92"></stop><stop offset=".34" stop-color="#C3D2C3" stop-opacity=".98"></stop><stop offset=".39" stop-color="#C3D2C3"></stop><stop offset=".44" stop-color="#C3D2C3"></stop><stop offset=".72" stop-color="#C3D2C3"></stop><stop offset=".78" stop-color="#C3D2C3" stop-opacity=".78"></stop><stop offset=".93" stop-color="#C3D2C3" stop-opacity=".23"></stop><stop offset="1" stop-color="#C3D2C3" stop-opacity=".01"></stop></linearGradient><linearGradient id="paint1_linear_11461_58483-uid-69-uid-86" x1="75.67" y1="107.899" x2="75.67" y2="22.962" gradientUnits="userSpaceOnUse"><stop stop-color="#126B00"></stop><stop offset=".5" stop-color="#126D00"></stop><stop offset=".68" stop-color="#127400"></stop><stop offset=".8" stop-color="#137F00"></stop><stop offset=".91" stop-color="#139000"></stop><stop offset=".99" stop-color="#14A600"></stop><stop offset="1" stop-color="#14A800"></stop></linearGradient><linearGradient id="paint2_linear_11461_58483-uid-69-uid-86" x1="74.293" y1="107.899" x2="74.293" y2="22.962" gradientUnits="userSpaceOnUse"><stop stop-color="#126B00"></stop><stop offset=".27" stop-color="#126F00"></stop><stop offset=".52" stop-color="#127A00"></stop><stop offset=".76" stop-color="#138D00"></stop><stop offset=".99" stop-color="#14A700"></stop><stop offset="1" stop-color="#14A800"></stop></linearGradient><linearGradient id="paint3_linear_11461_58483-uid-69-uid-86" x1="70.977" y1="102.761" x2="70.977" y2="38.095" gradientUnits="userSpaceOnUse"><stop offset=".69" stop-color="#C3D2C3"></stop><stop offset=".71" stop-color="#C9D7C9"></stop><stop offset=".79" stop-color="#D8E2D8"></stop><stop offset=".87" stop-color="#E1E9E1"></stop><stop offset="1" stop-color="#E4EBE4"></stop></linearGradient><linearGradient id="paint4_linear_11461_58483-uid-69-uid-86" x1="66.694" y1="103.747" x2="70.647" y2="32.475" gradientUnits="userSpaceOnUse"><stop offset=".54" stop-color="#D7E2D7"></stop><stop offset=".62" stop-color="#E6EEE6"></stop><stop offset=".71" stop-color="#EFF5EF"></stop><stop offset=".85" stop-color="#F2F7F2"></stop><stop offset="1" stop-color="#fff"></stop></linearGradient><linearGradient id="paint5_linear_11461_58483-uid-69-uid-86" x1="86.252" y1="125.708" x2="48.189" y2="31.895" gradientUnits="userSpaceOnUse"><stop stop-color="#126B00"></stop><stop offset=".17" stop-color="#137C00"></stop><stop offset=".48" stop-color="#139400"></stop><stop offset=".76" stop-color="#14A300"></stop><stop offset="1" stop-color="#14A800"></stop></linearGradient><clipPath id="clip0_11461_58483-uid-69-uid-86"><rect width="145" height="130" fill="#fff"></rect></clipPath></defs></svg>