<svg fill="none" xmlns="http://www.w3.org/2000/svg" viewBox="0 0 145 130" aria-hidden="true" role="img"><path d="M127.335 128.283H16.063a.846.846 0 00-.858.858c0 .536.429.857.858.857h111.272c.536 0 .857-.428.857-.857 0-.536-.321-.858-.857-.858z" fill="url(#paint0_linear_11466_59119-uid-17)"></path><path d="M66.183 62.164h15.542V110.2H66.183V62.164z" fill="url(#paint1_linear_11466_59119-uid-17)"></path><path d="M66.183 62.164h15.542V110.2H66.183V62.164z" fill="url(#paint2_radial_11466_59119-uid-17)"></path><path d="M73.248 69.581c-5.63 0-7.064 3.885-7.064 3.885v-7.064h6.04l1.024 3.18z" fill="#CE7E3C"></path><path d="M60.532 101.725h26.844v25.431H60.532v-25.431z" fill="url(#paint3_linear_11466_59119-uid-17)"></path><path d="M60.532 100.311h26.844v24.018H60.532v-24.018z" fill="url(#paint4_radial_11466_59119-uid-17)"></path><path d="M36.514 120.092h74.881v8.477h-74.88v-8.477z" fill="url(#paint5_linear_11466_59119-uid-17)"></path><path d="M97.417 22.862l5.216-4.661 2.663-2.33 1.332-1.221.222-.222.222-.222.222-.222c.111-.111.222-.111.222-.222a13.907 13.907 0 014.439-2.22 8.454 8.454 0 012.331-.333c.777 0 1.554 0 2.22.222 1.553.333 2.885 1.11 4.106 2.109 1.221 1.11 2.219 2.441 2.996 3.884.333.777.666 1.554.888 2.442.444 1.776.444 3.551.222 5.216-.111.888-.333 1.776-.666 2.552-.333.777-.666 1.554-1.11 2.331l-.221.222-.222.222c-.111.222-.222.333-.333.555-.222.333-.555.666-.777.999l-.888.888c-.111.11-.333.222-.444.333l-.222.222-.222.11c-.111.111-.333.223-.555.334-.111 0-.222.11-.222.11-.111 0-.222.111-.222.111-.222.111-.333.222-.555.222l-.333.111-.444.111-12.652 4.662-.443.11-.222.112-.333.11c-.222.112-.444.112-.555.222l-.555.334c-.777.443-1.443.887-2.109 1.442-1.332 1.221-2.552 2.664-3.33 4.218-.887 1.664-1.331 3.44-1.553 5.327-.222 1.886-.111 3.773.444 5.66.222.888.555 1.775.999 2.663.222.444.444.777.666 1.221l.11.888c.112.222.223.333.334.555.554.666 1.11 1.332 1.775 1.998l.444.444.222.222.222.221c.222.111.333.222.555.333l.555.333.222.111.333.111.555.222c.222.111.333.111.555.222l.333.111c.111 0 .222.111.333.111l.554.222c.222 0 .444.111.555.111.444.111.777.111 1.221.111 1.665.111 3.33-.11 4.772-.777 1.998-.777 2.997-3.33 2.331-5.549-.666-2.22-2.775-3.44-4.661-2.774h-.111c-.666.222-1.443.333-2.22.11h-.222c-.111 0-.111 0-.222-.11h-.222l-.222-.111c-.111 0-.111-.111-.222-.111h-.111l-.111-.111c-.111 0-.111-.111-.222-.111s-.111-.111-.222-.111l-.111-.111s-.111 0-.111-.111c-.111 0-.111-.111-.222-.111-.221-.222-.443-.444-.554-.777 0-.111-.111-.111-.111-.222s-.111-.111-.111-.222c-.111-.111-.111-.333-.222-.444-.111-.333-.222-.555-.333-.888-.111-.666-.222-1.22-.111-1.886.111-.666.333-1.221.555-1.776.111-.222.333-.555.555-.777l.111-.111.111-.111.11-.111.111-.111c.222-.222.444-.333.666-.444.111 0 .111 0 .222-.11.111 0 .111 0 .222-.112h.111l.888-.11.444-.112 12.763-4.328.444-.111.555-.222c.333-.111.666-.222.999-.444.222-.111.333-.111.444-.222.111-.111.333-.111.444-.222.332-.222.665-.333.998-.555l.444-.333.444-.333c.333-.222.555-.444.888-.666.555-.444 1.221-.998 1.665-1.443.555-.554 1.11-1.11 1.554-1.664.221-.333.443-.555.665-.888l.333-.444.333-.444c.888-1.332 1.665-2.774 2.22-4.217a36.737 36.737 0 001.332-4.661c.555-3.219.555-6.66-.111-9.878-.333-1.665-.888-3.218-1.443-4.661-1.221-2.886-3.108-5.55-5.438-7.769-2.22-1.998-4.883-3.551-7.88-4.328C117.282.222 115.84 0 114.286 0c-1.443 0-2.886.111-4.328.444a22.45 22.45 0 00-7.769 3.551c-.111.111-.333.222-.444.333l-.444.333c-.111.111-.333.222-.444.333l-.444.333-1.332 1.11-2.663 2.22-5.327 4.66c-2.331 1.998-2.775 5.66-1.11 8.325 1.665 2.663 4.994 3.218 7.325 1.331l.11-.11z" fill="url(#paint6_radial_11466_59119-uid-17)"></path><path d="M42.37 44.949l2.885-32.851c.11-.666-.444-1.221-1.11-1.332h-.111V.89h59.708v9.877c-.666 0-1.221.555-1.221 1.22v.112l2.886 32.85c1.665 18.535-12.985 34.405-31.519 34.405S40.704 63.372 42.37 44.949z" fill="url(#paint7_radial_11466_59119-uid-17)"></path><path d="M44.146.889h59.597v9.877H44.146V.89z" fill="url(#paint8_linear_11466_59119-uid-17)"></path><path d="M45.144 55.713l2.664-1.887c-.222 7.547-1.332 9.434-1.443 9.434-.888-1.665-1.776-3.33-2.33-5.105l1.109-2.442zm8.879-36.07c-1.442 5.883-10.32 10.544-10.32 10.544l.665-8.879 6.77-3.884 2.885 2.22z" fill="#CE7E3C"></path><path d="M44.035 10.764h59.708c-.666 0-1.221.555-1.221 1.22v.111c-47.61-.333-58.265 10.877-58.265 10.877l.999-10.877c.11-.776-.444-1.331-1.221-1.331.11 0 .11 0 0 0z" fill="#CE7E3C"></path><path d="M45.81 22.863L40.594 18.2l-2.664-2.33-1.33-1.22-.222-.222-.222-.222-.222-.222c-.111-.11-.222-.11-.222-.222a13.898 13.898 0 00-4.44-2.22 8.447 8.447 0 00-2.33-.332c-.777 0-1.443 0-2.22.221-1.553.333-2.885 1.11-4.106 2.11-1.22 1.109-2.22 2.44-2.997 3.883-.332.777-.665 1.554-.887 2.442a10.944 10.944 0 00-.333 2.664c0 .887 0 1.775.11 2.663.112.888.334 1.776.666 2.553.333.777.666 1.554 1.11 2.33l.222.222.222.222c.111.222.222.333.333.555.222.333.555.666.777 1l.888.887c.11.111.333.222.444.333l.222.222.222.11c.222.112.333.223.555.334.11 0 .222.11.222.11.11 0 .222.112.222.112.222.11.332.222.555.222l.332.11.444.112 12.652 4.661.444.11.222.112.333.11c.222.112.444.112.555.223l.555.333c.777.444 1.443.888 2.109 1.443 1.331 1.22 2.552 2.663 3.33 4.217.887 1.665 1.33 3.44 1.553 5.327.222 1.887.11 3.773-.444 5.66a13.01 13.01 0 01-.999 2.664c-.222.444-.444.777-.666 1.22l-.333.555c-.11.222-.222.333-.333.555-.555.666-1.11 1.332-1.775 1.998l-.444.444-.222.222-.222.222c-.222.11-.333.222-.555.333l-.555.333-.222.11-.333.112-.555.222c-.222.11-.333.11-.555.222l-.333.11c-.11 0-.222.112-.333.112l-.555.221c-.222 0-.444.112-.554.112-.444.11-.777.11-1.221.11-1.665.111-3.33-.11-4.773-.776-1.997-.777-2.996-3.33-2.33-5.55.666-2.22 2.774-3.44 4.661-2.774h.111c.555.222 1.11.222 1.776.222.11 0 .333 0 .444-.111h.222c.11 0 .11 0 .222-.111h.222l.222-.111c.11 0 .11-.111.221-.111h.111l.111-.111c.111 0 .111-.11.222-.11s.111-.112.222-.112l.111-.11s.111 0 .111-.112c0 0 .111-.11.222-.11.222-.223.444-.445.555-.667 0-.11.111-.11.111-.222 0-.11.111-.11.111-.222.111-.11.111-.333.222-.444.111-.333.222-.555.333-.888.111-.665.111-1.22.111-1.886-.11-.666-.333-1.221-.555-1.776a3.375 3.375 0 00-.555-.777l-.11-.11-.112-.112-.11-.11-.112-.112c-.222-.222-.444-.333-.666-.444-.11 0-.11 0-.222-.11-.11 0-.11 0-.221-.112h-.111l-.222-.11-.444-.111-12.763-4.329-.444-.11-.555-.223c-.333-.11-.666-.222-.999-.444-.222-.11-.333-.11-.444-.222-.11-.11-.333-.11-.444-.222-.333-.222-.666-.333-.999-.555l-.444-.333-.444-.332c-.332-.222-.554-.444-.887-.666-.555-.444-1.221-1-1.665-1.443-.555-.555-1.11-1.11-1.554-1.665-.222-.333-.444-.555-.666-.888l-.333-.444-.333-.444c-.887-1.331-1.664-2.774-2.22-4.217a36.736 36.736 0 01-1.331-4.661c-.555-3.219-.555-6.659.111-9.878.333-1.664.888-3.218 1.443-4.66 1.22-2.886 3.107-5.55 5.438-7.77 2.22-1.997 4.883-3.55 7.88-4.328C26.388.333 27.83.111 29.274.111c1.443 0 2.885.111 4.328.444a22.457 22.457 0 017.769 3.552c.11.11.333.222.444.333l.444.333c.11.11.333.222.444.333l.444.332 1.331 1.11 2.664 2.22 4.883 4.55c2.33 1.998 2.775 5.66 1.11 8.324-1.665 2.663-4.883 3.218-7.325 1.22z" fill="url(#paint9_radial_11466_59119-uid-17)"></path><path d="M48.807 10.543l3.218 2.775c2.33 1.997 2.775 5.66 1.11 8.323.999-5.216-4.328-11.098-4.328-11.098z" fill="#CE7E3C"></path><path d="M90.536 24.86c2.663.223 4.772 2.442 4.883 5.217l.222 5.105.222-5.105c.11-2.664 2.22-4.884 4.883-5.217-2.663-.221-4.772-2.441-4.883-5.105l-.222-4.55-.222 4.55c-.111 2.664-2.22 4.884-4.883 5.105z" fill="#fff"></path><defs><radialGradient id="paint2_radial_11466_59119-uid-17" cx="0" cy="0" r="1" gradientUnits="userSpaceOnUse" gradientTransform="matrix(-27.7614 0 0 -51.3385 75.218 61.327)"><stop offset=".78" stop-color="#EB9546" stop-opacity="0"></stop><stop offset=".94" stop-color="#EB9546"></stop></radialGradient><radialGradient id="paint4_radial_11466_59119-uid-17" cx="0" cy="0" r="1" gradientUnits="userSpaceOnUse" gradientTransform="matrix(-37.8063 0 0 -37.041 76.346 87.926)"><stop offset=".78" stop-color="#EB9546" stop-opacity="0"></stop><stop offset=".94" stop-color="#EB9546"></stop></radialGradient><radialGradient id="paint6_radial_11466_59119-uid-17" cx="0" cy="0" r="1" gradientUnits="userSpaceOnUse" gradientTransform="rotate(180 61.504 9.336) scale(29.8117)"><stop offset=".54" stop-color="#FCCD81"></stop><stop offset=".92" stop-color="#EB9546"></stop></radialGradient><radialGradient id="paint7_radial_11466_59119-uid-17" cx="0" cy="0" r="1" gradientUnits="userSpaceOnUse" gradientTransform="rotate(180 43.718 15.996) scale(46.9914)"><stop offset=".54" stop-color="#FCCD81"></stop><stop offset=".92" stop-color="#EB9546"></stop></radialGradient><radialGradient id="paint9_radial_11466_59119-uid-17" cx="0" cy="0" r="1" gradientUnits="userSpaceOnUse" gradientTransform="matrix(-34.04453 -16.8547 11.29231 -22.80915 37.454 23.117)"><stop offset=".6" stop-color="#FCCD81"></stop><stop offset=".92" stop-color="#EB9546"></stop></radialGradient><linearGradient id="paint0_linear_11466_59119-uid-17" x1="128.213" y1="129.117" x2="15.185" y2="129.117" gradientUnits="userSpaceOnUse"><stop stop-color="#C3D2C3" stop-opacity="0"></stop><stop offset=".01" stop-color="#C3D2C3" stop-opacity=".05"></stop><stop offset=".06" stop-color="#C3D2C3" stop-opacity=".3"></stop><stop offset=".12" stop-color="#C3D2C3" stop-opacity=".51"></stop><stop offset=".18" stop-color="#C3D2C3" stop-opacity=".69"></stop><stop offset=".23" stop-color="#C3D2C3" stop-opacity=".83"></stop><stop offset=".28" stop-color="#C3D2C3" stop-opacity=".92"></stop><stop offset=".34" stop-color="#C3D2C3" stop-opacity=".98"></stop><stop offset=".39" stop-color="#C3D2C3"></stop><stop offset=".44" stop-color="#C3D2C3"></stop><stop offset=".72" stop-color="#C3D2C3"></stop><stop offset=".78" stop-color="#C3D2C3" stop-opacity=".78"></stop><stop offset=".93" stop-color="#C3D2C3" stop-opacity=".23"></stop><stop offset="1" stop-color="#C3D2C3" stop-opacity=".01"></stop></linearGradient><linearGradient id="paint1_linear_11466_59119-uid-17" x1="81.713" y1="86.177" x2="66.196" y2="86.177" gradientUnits="userSpaceOnUse"><stop offset=".45" stop-color="#FCCD81"></stop><stop offset=".82" stop-color="#EB9546"></stop><stop offset=".88" stop-color="#EB9546"></stop></linearGradient><linearGradient id="paint3_linear_11466_59119-uid-17" x1="87.395" y1="114.458" x2="60.513" y2="114.458" gradientUnits="userSpaceOnUse"><stop offset=".45" stop-color="#FCCD81"></stop><stop offset=".82" stop-color="#EB9546"></stop><stop offset=".88" stop-color="#EB9546"></stop></linearGradient><linearGradient id="paint5_linear_11466_59119-uid-17" x1="111.421" y1="124.331" x2="36.489" y2="124.331" gradientUnits="userSpaceOnUse"><stop offset=".45" stop-color="#FCCD81"></stop><stop offset=".82" stop-color="#EB9546"></stop><stop offset=".88" stop-color="#EB9546"></stop></linearGradient><linearGradient id="paint8_linear_11466_59119-uid-17" x1="103.705" y1="5.803" x2="44.073" y2="5.803" gradientUnits="userSpaceOnUse"><stop offset=".45" stop-color="#FCCD81"></stop><stop offset=".82" stop-color="#EB9546"></stop><stop offset=".88" stop-color="#EB9546"></stop></linearGradient></defs></svg>